<svg width="20" height="20" viewBox="0 0 20 20" fill="none" xmlns="http://www.w3.org/2000/svg">
<g clip-path="url(#clip0_0_2583)">
<path d="M10.0013 18.3327C14.6037 18.3327 18.3346 14.6017 18.3346 9.99935C18.3346 5.39698 14.6037 1.66602 10.0013 1.66602C5.39893 1.66602 1.66797 5.39698 1.66797 9.99935C1.66797 14.6017 5.39893 18.3327 10.0013 18.3327Z" stroke="#61656C" stroke-width="1.66667" stroke-linecap="round" stroke-linejoin="round"/>
<path d="M4.10938 4.10742L7.64271 7.64076" stroke="#61656C" stroke-width="1.66667" stroke-linecap="round" stroke-linejoin="round"/>
<path d="M12.3594 7.64076L15.8927 4.10742" stroke="#61656C" stroke-width="1.66667" stroke-linecap="round" stroke-linejoin="round"/>
<path d="M12.3594 12.3574L15.8927 15.8908" stroke="#61656C" stroke-width="1.66667" stroke-linecap="round" stroke-linejoin="round"/>
<path d="M7.64271 12.3574L4.10938 15.8908" stroke="#61656C" stroke-width="1.66667" stroke-linecap="round" stroke-linejoin="round"/>
<path d="M10.0013 13.3327C11.8423 13.3327 13.3346 11.8403 13.3346 9.99935C13.3346 8.1584 11.8423 6.66602 10.0013 6.66602C8.16035 6.66602 6.66797 8.1584 6.66797 9.99935C6.66797 11.8403 8.16035 13.3327 10.0013 13.3327Z" stroke="#61656C" stroke-width="1.66667" stroke-linecap="round" stroke-linejoin="round"/>
</g>
<defs>
<clipPath id="clip0_0_2583">
<rect width="20" height="20" fill="white"/>
</clipPath>
</defs>
</svg>
