<svg width="20" height="20" viewBox="0 0 20 20" fill="none" xmlns="http://www.w3.org/2000/svg">
<g clip-path="url(#clip0_43659_453)">
<path d="M10.4884 2.15502C10.1759 1.84244 9.75207 1.66678 9.31008 1.66669H3.33341C2.89139 1.66669 2.46746 1.84228 2.1549 2.15484C1.84234 2.4674 1.66675 2.89133 1.66675 3.33335V9.31002C1.66684 9.75201 1.8425 10.1759 2.15508 10.4884L9.40841 17.7417C9.78718 18.1181 10.2995 18.3293 10.8334 18.3293C11.3674 18.3293 11.8797 18.1181 12.2584 17.7417L17.7417 12.2584C18.1181 11.8796 18.3294 11.3673 18.3294 10.8334C18.3294 10.2994 18.1181 9.78711 17.7417 9.40835L10.4884 2.15502Z" stroke="#61656C" stroke-width="1.66667" stroke-linecap="round" stroke-linejoin="round"/>
<path d="M6.24992 6.66665C6.48004 6.66665 6.66659 6.4801 6.66659 6.24998C6.66659 6.01986 6.48004 5.83331 6.24992 5.83331C6.0198 5.83331 5.83325 6.01986 5.83325 6.24998C5.83325 6.4801 6.0198 6.66665 6.24992 6.66665Z" fill="#61656C" stroke="#61656C" stroke-width="1.66667" stroke-linecap="round" stroke-linejoin="round"/>
</g>
<defs>
<clipPath id="clip0_43659_453">
<rect width="20" height="20" fill="white"/>
</clipPath>
</defs>
</svg>
