<svg width="20" height="20" viewBox="0 0 20 20" fill="none" xmlns="http://www.w3.org/2000/svg">
<path d="M2.5 2.5V15.8333C2.5 16.2754 2.67559 16.6993 2.98816 17.0118C3.30072 17.3244 3.72464 17.5 4.16667 17.5H17.5" stroke="#61656C" stroke-width="1.45833" stroke-linecap="round" stroke-linejoin="round"/>
<path d="M15 4.16699H13.3333C12.8731 4.16699 12.5 4.54009 12.5 5.00033V13.3337C12.5 13.7939 12.8731 14.167 13.3333 14.167H15C15.4602 14.167 15.8333 13.7939 15.8333 13.3337V5.00033C15.8333 4.54009 15.4602 4.16699 15 4.16699Z" stroke="#61656C" stroke-width="1.45833" stroke-linecap="round" stroke-linejoin="round"/>
<path d="M8.33203 6.66699H6.66536C6.20513 6.66699 5.83203 7.04009 5.83203 7.50033V13.3337C5.83203 13.7939 6.20513 14.167 6.66536 14.167H8.33203C8.79227 14.167 9.16536 13.7939 9.16536 13.3337V7.50033C9.16536 7.04009 8.79227 6.66699 8.33203 6.66699Z" stroke="#61656C" stroke-width="1.45833" stroke-linecap="round" stroke-linejoin="round"/>
</svg>
