<svg width="69" height="25" viewBox="0 0 69 25" fill="none" xmlns="http://www.w3.org/2000/svg">
<path d="M7.25603 24.3463L0 9.01965H3.4582L8.02467 18.9695L12.6063 9.01965H16.0645L8.79331 24.3463H7.25603Z" fill="#4FD4D0"/>
<path d="M23.4686 20.876C23.9814 21.3333 24.9123 21.5606 26.2612 21.5606C27.7188 21.5606 28.9659 21.0437 29.9999 20.0113C30.1278 19.8727 30.3891 19.565 30.7837 19.0883L33.8432 20.19C33.0938 21.2321 32.552 21.9222 32.2179 22.2604C30.572 23.9191 28.5878 24.7478 26.2612 24.7478C23.9347 24.7478 21.9656 23.9191 20.3197 22.2604C18.6738 20.6016 17.8516 18.6019 17.8516 16.2572C17.8516 13.9125 18.6738 11.9128 20.3197 10.2541C21.9656 8.59529 23.9457 7.7666 26.2612 7.7666C28.2509 7.7666 29.9958 8.37218 31.4932 9.58335C31.7394 9.79121 31.9814 10.0157 32.2179 10.2541C32.3169 10.3538 32.5974 10.6656 33.0608 11.1922L31.5235 12.7568L23.4686 20.8746V20.876ZM28.5823 11.3433C28.2372 11.0758 27.4644 10.9414 26.2626 10.9414C24.8147 10.9414 23.5758 11.4597 22.5459 12.4976C21.516 13.5356 21.0018 14.7883 21.0018 16.2586C21.0018 17.4601 21.1351 18.2402 21.4005 18.5964L28.5837 11.3433H28.5823Z" fill="#4FD4D0"/>
<path d="M40.4652 0.5V24.3463H37.3906V0.5H40.4652Z" fill="#4FD4D0"/>
<path d="M47.973 0.5V24.3463H44.8984V0.5H47.973Z" fill="#4FD4D0"/>
<path d="M59.9306 7.76831C62.2558 7.76831 64.2359 8.597 65.8763 10.2558C67.5167 11.9145 68.3389 13.9142 68.3389 16.2589C68.3389 18.6036 67.5167 20.6033 65.8763 22.2621C64.2359 23.9208 62.2558 24.7495 59.9306 24.7495C57.6055 24.7495 55.6351 23.9208 53.9891 22.2621C52.3419 20.6033 51.5196 18.6036 51.5196 16.2589C51.5196 13.9142 52.3419 11.9145 53.9891 10.2558C55.6351 8.597 57.6151 7.76831 59.9306 7.76831ZM56.1961 12.5049C55.1662 13.547 54.6547 14.7983 54.6547 16.2589C54.6547 17.7195 55.1675 18.9792 56.1961 20.013C57.2246 21.0468 58.4717 21.5623 59.9306 21.5623C61.3896 21.5623 62.6298 21.0454 63.6597 20.013C64.6896 18.9806 65.2066 17.7292 65.2066 16.2589C65.2066 14.7886 64.6896 13.5484 63.6597 12.5049C62.6298 11.4614 61.3882 10.9403 59.9306 10.9403C58.4731 10.9403 57.226 11.4614 56.1961 12.5049Z" fill="#4FD4D0"/>
</svg>
