<svg width="23" height="11" viewBox="0 0 23 11" fill="none" xmlns="http://www.w3.org/2000/svg">
<path d="M2.16209 11C1.50876 11 0.986093 10.8087 0.594093 10.426C0.211427 10.0433 0.0200933 9.53 0.0200933 8.886C0.0200933 8.20467 0.22076 7.67733 0.622093 7.304C1.03276 6.92133 1.63476 6.73 2.42809 6.73H3.25409V5.19H2.42809C1.63476 5.19 1.03276 5.00333 0.622093 4.63C0.22076 4.24733 0.0200933 3.71533 0.0200933 3.034C0.0200933 2.39 0.211427 1.87667 0.594093 1.494C0.986093 1.11133 1.50876 0.92 2.16209 0.92C2.68476 0.92 3.09543 1.018 3.39409 1.214C3.70209 1.41 3.91676 1.67133 4.03809 1.998C4.16876 2.32467 4.23409 2.684 4.23409 3.076V4.238H5.77409V3.076C5.77409 2.684 5.83476 2.32467 5.95609 1.998C6.08676 1.67133 6.30143 1.41 6.60009 1.214C6.90809 1.018 7.32343 0.92 7.84609 0.92C8.49943 0.92 9.01743 1.11133 9.40009 1.494C9.79209 1.87667 9.98809 2.39 9.98809 3.034C9.98809 3.71533 9.78743 4.24733 9.38609 4.63C8.98476 5.00333 8.38276 5.19 7.58009 5.19H6.75409V6.73H7.58009C8.38276 6.73 8.98476 6.92133 9.38609 7.304C9.78743 7.67733 9.98809 8.20467 9.98809 8.886C9.98809 9.53 9.79209 10.0433 9.40009 10.426C9.01743 10.8087 8.49943 11 7.84609 11C7.32343 11 6.90809 10.902 6.60009 10.706C6.30143 10.51 6.08676 10.2487 5.95609 9.922C5.83476 9.59533 5.77409 9.236 5.77409 8.844V7.682H4.23409V8.844C4.23409 9.236 4.16876 9.59533 4.03809 9.922C3.91676 10.2487 3.70209 10.51 3.39409 10.706C3.09543 10.902 2.68476 11 2.16209 11ZM6.75409 3.048V4.238H7.58009C8.07476 4.238 8.43409 4.14 8.65809 3.944C8.88209 3.73867 8.99409 3.43533 8.99409 3.034C8.99409 2.62333 8.88209 2.32933 8.65809 2.152C8.44343 1.97467 8.17276 1.886 7.84609 1.886C7.48209 1.886 7.20676 1.99333 7.02009 2.208C6.84276 2.41333 6.75409 2.69333 6.75409 3.048ZM2.42809 4.238H3.25409V3.048C3.25409 2.69333 3.16076 2.41333 2.97409 2.208C2.79676 1.99333 2.52609 1.886 2.16209 1.886C1.83543 1.886 1.56009 1.97467 1.33609 2.152C1.12143 2.32933 1.01409 2.62333 1.01409 3.034C1.01409 3.43533 1.12609 3.73867 1.35009 3.944C1.57409 4.14 1.93343 4.238 2.42809 4.238ZM4.23409 6.73H5.77409V5.19H4.23409V6.73ZM2.16209 10.034C2.52609 10.034 2.79676 9.93133 2.97409 9.726C3.16076 9.51133 3.25409 9.22667 3.25409 8.872V7.682H2.42809C1.93343 7.682 1.57409 7.78467 1.35009 7.99C1.12609 8.186 1.01409 8.48467 1.01409 8.886C1.01409 9.29667 1.12143 9.59067 1.33609 9.768C1.56009 9.94533 1.83543 10.034 2.16209 10.034ZM6.75409 8.872C6.75409 9.22667 6.84276 9.51133 7.02009 9.726C7.20676 9.93133 7.48209 10.034 7.84609 10.034C8.17276 10.034 8.44343 9.94533 8.65809 9.768C8.88209 9.59067 8.99409 9.29667 8.99409 8.886C8.99409 8.48467 8.88209 8.186 8.65809 7.99C8.43409 7.78467 8.07476 7.682 7.58009 7.682H6.75409V8.872ZM22.5477 3.314H17.5637V5.666H21.4977V7.22H17.5637V11H15.6317V1.76H22.5477V3.314Z" fill="#202831"/>
</svg>
